<svg height='300px' width='300px' fill="#000000" xmlns="http://www.w3.org/2000/svg" data-name="Layer 1" viewBox="0 0 100 100" x="0px" y="0px">
	<title>Noun_Project_20Icon_5px_grid_merged</title>
	<path d="M50,95a9.93,9.93,0,0,0,7.07-2.93L90,59.14A10,10,0,0,0,75.86,45L50,70.86,24.14,45A10,10,0,1,0,10,59.14L42.93,92.07A9.93,9.93,0,0,0,50,95ZM13.53,48.53a5,5,0,0,1,7.07,0L50,77.93l29.4-29.4a5,5,0,0,1,7.07,7.07L53.54,88.54a5,5,0,0,1-7.07,0L13.53,55.6A5,5,0,0,1,13.53,48.53Z"/>
	<path d="M50,57.93A9.93,9.93,0,0,0,57.07,55L90,22.07A10,10,0,0,0,75.86,7.93L50,33.79,24.14,7.93A10,10,0,1,0,10,22.07L42.93,55A9.93,9.93,0,0,0,50,57.93ZM13.53,11.46a5,5,0,0,1,7.07,0L50,40.86l29.4-29.4a5,5,0,0,1,7.07,7.07L53.54,51.47a5,5,0,0,1-7.07,0L13.53,18.54A5,5,0,0,1,13.53,11.46Z"/>
</svg>